<mxfile host="app.diagrams.net" modified="2024-02-07T13:59:08.394Z" agent="Mozilla/5.0 (Windows NT 10.0; Win64; x64) AppleWebKit/537.36 (KHTML, like Gecko) Chrome/121.0.0.0 Safari/537.36" version="23.1.1" etag="jd33f4TR3pt5YVqGJHW6" type="github">
  <diagram name="PÃ¡gina-1" id="6KbkDB7WchvpsPqGIWbu">
    <mxGraphModel>
      <root>
        <mxCell id="0" />
        <mxCell id="1" parent="0" />
      </root>
    </mxGraphModel>
  </diagram>
</mxfile>
